# xmcd
#
# Track frame offsets:
#	150
#	13842
#	25985
#	46965
#	68555
#	79342
#	92817
#	103387
#	119067
#	134062
#	148100
#	157570
#	170284
#	184495
#	196747
#	219412
#
# Disc length: 3191 seconds
#
# Revision: 2
# Processed by: cddbd v1.4b41PL2 Copyright (c) Steve Scherf et al.
# Submitted via: EZCDDA 4.3.2
#
DISCID=e70c7510
DTITLE=ETC. - Love Pops Ballad Vol. 6
DYEAR=1900
DGENRE=
TTITLE0=Top of the World
TTITLE1=You mean everything to me
TTITLE2=My way
TTITLE3=Killing me softly with this song
TTITLE4=Changing partners
TTITLE5=Danny boy
TTITLE6=Oh Carol
TTITLE7=Oh darling
TTITLE8=I don't know how to love him
TTITLE9=Green, green, grass of home
TTITLE10=Autumm leaves
TTITLE11=The end of the world
TTITLE12=Am I that easy to forget
TTITLE13=I am sorry
TTITLE14=Those were the days
TTITLE15=When the saints go marching in
EXTD=
EXTT0=
EXTT1=
EXTT2=
EXTT3=
EXTT4=
EXTT5=
EXTT6=
EXTT7=
EXTT8=
EXTT9=
EXTT10=
EXTT11=
EXTT12=
EXTT13=
EXTT14=
EXTT15=
PLAYORDER=
